<svg width="96" height="96" viewBox="0 0 96 96" fill="none" xmlns="http://www.w3.org/2000/svg">
<circle cx="48" cy="48" r="48" fill="#DB7D7F"/>
<g clip-path="url(#clip0_0_1)">
<path d="M68.9967 49.329C68.9967 55.7458 68.9989 62.1638 68.9967 68.5807C68.9956 72.3619 66.4007 74.9932 62.6524 74.9954C53.2222 75.0009 43.7909 75.0009 34.3606 74.9954C31.0805 74.9943 28.6394 72.9588 28.0807 69.7713C28.0218 69.4366 28.0164 69.0898 28.0164 68.7486C28.0131 55.8183 28.0338 42.889 28 29.9587C27.9913 26.4682 30.8153 23.6592 34.1795 23.7338C36.8104 23.7931 39.4435 23.7349 42.0755 23.7547C42.5414 23.758 42.8153 23.6373 43.0641 23.2038C45.5215 18.9299 51.4981 18.9321 53.95 23.206C54.1825 23.6109 54.4258 23.758 54.8819 23.7547C57.647 23.7371 60.4122 23.7294 63.1762 23.7569C66.3014 23.7887 68.976 26.4715 68.9869 29.6196C69.0098 36.189 68.9934 42.7584 68.9934 49.329H68.9967ZM66.129 49.3893C66.129 43.1041 66.129 36.82 66.129 30.5348C66.129 30.2681 66.1323 30.0015 66.1225 29.7348C66.0635 28.1109 65.0716 26.9104 63.461 26.6603C62.0163 26.4353 60.5508 26.6087 59.094 26.5769C58.8223 26.5714 58.7415 26.7426 58.7295 26.9829C58.7088 27.4009 58.6761 27.8179 58.6564 28.236C58.5233 31.0439 56.0157 33.6038 53.2266 33.7684C50.3501 33.9374 47.4715 33.842 44.594 33.831C42.2239 33.8222 40.3634 32.8094 39.1161 30.74C38.4636 29.658 38.2999 28.4565 38.2966 27.2276C38.2955 26.7437 38.1591 26.5472 37.6485 26.5615C36.5125 26.5933 35.3755 26.5615 34.2395 26.5736C32.2273 26.5933 30.8895 27.9221 30.8884 29.9488C30.8819 42.8802 30.8819 55.8117 30.8884 68.7431C30.8884 70.8016 32.1968 72.0975 34.2362 72.0975C43.7625 72.1008 53.2899 72.0964 62.8161 72.1019C63.9379 72.1019 64.837 71.6805 65.5234 70.795C66.0417 70.1268 66.1323 69.3466 66.1312 68.528C66.1236 62.1485 66.1268 55.7678 66.1268 49.3882L66.129 49.3893ZM48.4907 30.9561C49.7205 30.9561 50.9503 30.9561 52.1801 30.9561C54.6451 30.955 56.0037 29.4956 55.8618 27.0279C55.8422 26.6778 55.7102 26.5626 55.3795 26.5692C54.7172 26.5824 54.0548 26.5758 53.3935 26.5714C52.4944 26.5659 52.0764 26.2598 51.7993 25.4138C51.2624 23.7777 50.0981 22.8911 48.4929 22.8944C46.8997 22.8977 45.7387 23.8008 45.2149 25.4434C44.9694 26.2126 44.5122 26.5604 43.7079 26.5703C43.0085 26.5791 42.3079 26.5736 41.6085 26.5736C41.3891 26.5736 41.1916 26.5878 41.1611 26.8819C40.9003 29.3892 42.4607 30.9232 44.4063 30.9517C45.7681 30.9715 47.1311 30.955 48.4929 30.9572L48.4907 30.9561Z" fill="white"/>
<path d="M39.3835 50.6876C39.4151 50.1554 39.6519 49.7274 40.143 49.4542C40.6646 49.1634 41.1774 49.2128 41.6325 49.5672C42.0046 49.8569 42.3341 50.2037 42.6735 50.5339C43.7483 51.5796 44.8308 52.6177 45.8827 53.6853C46.2123 54.0189 46.412 54.0222 46.7491 53.6875C49.4008 51.0508 52.0699 48.4326 54.7368 45.8112C54.9398 45.6126 55.1449 45.4107 55.3752 45.2462C55.9873 44.8072 56.7479 44.8808 57.2313 45.4031C57.7431 45.9561 57.7573 46.733 57.2531 47.3222C57.0687 47.5384 56.8581 47.7326 56.6551 47.9323C53.6947 50.85 50.7353 53.7687 47.7705 56.6831C47.5283 56.9212 47.2729 57.1593 46.9859 57.3349C46.4382 57.6706 45.8162 57.6015 45.3142 57.1143C43.4613 55.317 41.6259 53.5021 39.7883 51.6894C39.521 51.4249 39.4009 51.0859 39.3846 50.6876H39.3835Z" fill="white"/>
</g>
<defs>
<clipPath id="clip0_0_1">
<rect width="41" height="55" fill="white" transform="translate(28 20)"/>
</clipPath>
</defs>
</svg>
