<svg width="41" height="55" viewBox="0 0 41 55" fill="none" xmlns="http://www.w3.org/2000/svg">
<g clip-path="url(#clip0_1_164)">
<path d="M40.9967 29.329C40.9967 35.7458 40.9989 42.1638 40.9967 48.5807C40.9956 52.3619 38.4007 54.9932 34.6524 54.9954C25.2222 55.0009 15.7909 55.0009 6.36065 54.9954C3.08047 54.9943 0.639438 52.9588 0.0807391 49.7713C0.0218138 49.4366 0.0163578 49.0898 0.0163578 48.7486C0.0130842 35.8183 0.0338171 22.889 -1.03327e-05 9.95869C-0.00874001 6.46825 2.81531 3.65921 6.17951 3.73383C8.81041 3.79308 11.4435 3.73492 14.0755 3.75467C14.5414 3.75797 14.8153 3.63727 15.0641 3.20384C17.5215 -1.07006 23.4981 -1.06787 25.95 3.20603C26.1825 3.61093 26.4258 3.75797 26.8819 3.75467C29.647 3.73712 32.4122 3.72944 35.1762 3.75687C38.3014 3.78869 40.976 6.47154 40.9869 9.61963C41.0098 16.189 40.9934 22.7584 40.9934 29.329H40.9967ZM38.129 29.3893C38.129 23.1041 38.129 16.82 38.129 10.5348C38.129 10.2681 38.1323 10.0015 38.1225 9.73484C38.0635 8.11087 37.0716 6.91045 35.461 6.66027C34.0163 6.43533 32.5508 6.6087 31.094 6.57687C30.8223 6.57139 30.7415 6.74256 30.7295 6.98287C30.7088 7.40093 30.6761 7.8179 30.6564 8.23596C30.5233 11.0439 28.0157 13.6038 25.2266 13.7684C22.3501 13.9374 19.4715 13.842 16.594 13.831C14.2239 13.8222 12.3634 12.8094 11.1161 10.74C10.4636 9.65803 10.2999 8.45651 10.2966 7.22756C10.2955 6.74366 10.1591 6.54725 9.64846 6.56151C8.51251 6.59333 7.37547 6.56151 6.23952 6.57358C4.22733 6.59333 2.88951 7.92214 2.88842 9.94881C2.88187 22.8802 2.88187 35.8117 2.88842 48.7431C2.88842 50.8016 4.19678 52.0975 6.23625 52.0975C15.7625 52.1008 25.2899 52.0964 34.8161 52.1019C35.9379 52.1019 36.837 51.6805 37.5234 50.795C38.0417 50.1268 38.1323 49.3466 38.1312 48.528C38.1236 42.1485 38.1268 35.7678 38.1268 29.3882L38.129 29.3893ZM20.4907 10.9561C21.7205 10.9561 22.9503 10.9561 24.1801 10.9561C26.6451 10.955 28.0037 9.49564 27.8618 7.02786C27.8422 6.67782 27.7102 6.56261 27.3795 6.56919C26.7172 6.58236 26.0548 6.57578 25.3935 6.57139C24.4944 6.5659 24.0764 6.25976 23.7993 5.41376C23.2624 3.77772 22.0981 2.89112 20.4929 2.89441C18.8997 2.8977 17.7387 3.80076 17.2149 5.44339C16.9694 6.21258 16.5122 6.56042 15.7079 6.57029C15.0085 6.57907 14.3079 6.57358 13.6085 6.57358C13.3891 6.57358 13.1916 6.58785 13.1611 6.88192C12.9003 9.3892 14.4607 10.9232 16.4063 10.9517C17.7681 10.9715 19.1311 10.955 20.4929 10.9572L20.4907 10.9561Z" fill="white"/>
<path d="M11.3835 30.6876C11.4151 30.1554 11.6519 29.7274 12.143 29.4542C12.6646 29.1634 13.1774 29.2128 13.6325 29.5672C14.0046 29.8569 14.3341 30.2037 14.6735 30.5339C15.7483 31.5796 16.8308 32.6177 17.8827 33.6853C18.2123 34.0189 18.412 34.0222 18.7491 33.6875C21.4008 31.0508 24.0699 28.4326 26.7368 25.8112C26.9398 25.6126 27.1449 25.4107 27.3752 25.2462C27.9873 24.8072 28.7479 24.8808 29.2313 25.4031C29.7431 25.9561 29.7573 26.733 29.2531 27.3222C29.0687 27.5384 28.8581 27.7326 28.6551 27.9323C25.6947 30.85 22.7353 33.7687 19.7705 36.6831C19.5283 36.9212 19.2729 37.1593 18.9859 37.3349C18.4382 37.6706 17.8162 37.6015 17.3142 37.1143C15.4613 35.317 13.6259 33.5021 11.7883 31.6894C11.521 31.4249 11.4009 31.0859 11.3846 30.6876H11.3835Z" fill="white"/>
</g>
<defs>
<clipPath id="clip0_1_164">
<rect width="41" height="55" fill="white"/>
</clipPath>
</defs>
</svg>
