<svg width="45" height="42" viewBox="0 0 45 42" fill="none" xmlns="http://www.w3.org/2000/svg">
<g clip-path="url(#clip0_1_153)">
<path d="M21.6526 11.7205C18.3436 10.9608 16.4463 7.04489 16.9792 4.28805C17.4699 1.74006 19.6503 -0.0129808 22.4199 7.24061e-05C25.1127 0.0118203 27.2841 1.69438 27.7991 4.13011C28.4474 7.19761 26.2952 10.9178 23.3935 11.607C23.3487 11.6174 23.3052 11.637 23.2142 11.6683C23.4102 11.8041 23.6011 11.7597 23.774 11.7636C24.8142 11.7845 25.8481 11.8928 26.8793 12.0247C29.9347 12.415 32.2098 14.7567 32.7863 17.9469C33.0835 19.5929 33.1783 21.2755 33.3782 22.9411C33.5486 24.3639 33.7356 25.7841 33.9226 27.2043C33.9944 27.7512 33.8342 28.1415 33.4422 28.319C32.9196 28.5553 32.3738 28.2511 32.2765 27.6128C32.0933 26.4224 31.9357 25.228 31.7948 24.031C31.5667 22.0913 31.4425 20.1346 31.1248 18.2106C30.6905 15.5843 29.0174 14.0297 26.4425 13.7059C23.651 13.3548 20.8583 13.3796 18.0682 13.7568C16.0223 14.0336 14.7297 15.2554 13.9572 17.1428C13.5293 18.1897 13.4986 19.3032 13.4064 20.4035C13.2052 22.8066 12.8914 25.1954 12.6121 27.5893C12.5506 28.1128 12.1573 28.4574 11.7102 28.426C11.2452 28.3934 10.8955 27.9848 10.9454 27.4262C11.053 26.2422 11.2106 25.0635 11.3336 23.8822C11.5283 22.0195 11.6974 20.1542 11.9024 18.2941C12.2931 14.7541 14.9142 12.2218 18.4051 11.9633C19.485 11.8837 20.5611 11.7427 21.6487 11.7205H21.6526ZM22.4622 1.74006C22.2867 1.74006 22.1099 1.73093 21.9344 1.74137C20.1832 1.8458 18.7164 3.17461 18.6126 4.8898C18.4922 6.84648 19.2788 8.42331 20.8801 9.51455C21.8601 10.1829 22.9042 10.1529 23.9111 9.51194C25.0858 8.7653 25.8186 7.68449 26.1094 6.31652C26.659 3.72676 25.0692 1.74268 22.4635 1.73876L22.4622 1.74006Z" fill="#5A6592"/>
<path d="M16.6065 40.9126C16.7628 39.9663 16.9434 38.8737 17.124 37.7825C17.215 37.2369 17.279 36.6834 17.4097 36.1482C17.493 35.8075 17.3841 35.5987 17.1586 35.3768C16.053 34.2895 14.959 33.1917 13.8573 32.1004C13.5665 31.8133 13.3487 31.5013 13.4832 31.064C13.6101 30.6541 13.9226 30.4975 14.3185 30.4401C15.7891 30.226 17.2585 29.9884 18.7318 29.7887C19.1827 29.7274 19.4735 29.5681 19.6785 29.1191C20.287 27.7903 20.9506 26.4862 21.5834 25.1692C21.7794 24.7606 21.9729 24.3808 22.5109 24.3873C23.0502 24.3938 23.2309 24.788 23.4256 25.1914C24.0687 26.5228 24.7323 27.8438 25.3574 29.183C25.5304 29.5537 25.7687 29.7182 26.1504 29.7704C27.5596 29.9636 28.9675 30.1725 30.3754 30.3787C30.5496 30.4035 30.7238 30.4322 30.8929 30.4792C31.5334 30.6581 31.7615 31.3251 31.3477 31.8616C31.1517 32.1148 30.898 32.3223 30.67 32.5508C29.722 33.4984 28.7779 34.4513 27.8235 35.3925C27.6108 35.6026 27.5263 35.7997 27.5852 36.1208C27.8606 37.6259 28.1066 39.1361 28.3538 40.6464C28.4256 41.085 28.4845 41.5418 28.0477 41.8433C27.6416 42.124 27.256 41.9569 26.8755 41.752C25.5598 41.0432 24.2378 40.3474 22.9285 39.6282C22.6275 39.4624 22.3854 39.4585 22.083 39.6243C20.702 40.3801 19.3146 41.1254 17.9196 41.8538C17.1996 42.2297 16.5949 41.8499 16.6065 40.9113V40.9126ZM28.8304 31.9333C28.7189 31.9085 28.6459 31.8877 28.5716 31.8759C27.5122 31.7154 26.4553 31.5404 25.392 31.4047C24.7912 31.3277 24.3569 31.111 24.0943 30.5001C23.6908 29.5603 23.2142 28.6518 22.7607 27.7341C22.6928 27.5971 22.6762 27.3647 22.4878 27.3765C22.3162 27.3882 22.2931 27.6127 22.2239 27.7524C21.8921 28.422 21.5744 29.0982 21.2414 29.7678C20.4048 31.4478 20.7827 31.2063 18.8201 31.5065C17.9452 31.6397 17.0702 31.7767 16.3528 31.8864C17.1484 32.7661 17.9631 33.6851 18.8009 34.5818C19.1238 34.9264 19.2993 35.2724 19.1865 35.7645C19.0674 36.2866 19.0008 36.8231 18.9137 37.353C18.7997 38.0527 18.6882 38.7523 18.5767 39.4468C18.7843 39.5042 18.8791 39.3946 18.988 39.3358C19.9539 38.8241 20.9224 38.3203 21.8793 37.7916C22.2995 37.5593 22.6838 37.5514 23.1053 37.7838C24.0751 38.3203 25.0564 38.8385 26.0351 39.3593C26.1299 39.4102 26.2337 39.5251 26.34 39.4585C26.4758 39.3737 26.3925 39.2236 26.372 39.1022C26.185 37.9783 26.0121 36.8505 25.8007 35.7318C25.7187 35.2998 25.8135 34.9656 26.1158 34.6693C26.7154 34.0819 27.3136 33.4919 27.9067 32.8967C28.2104 32.5925 28.5024 32.2753 28.8304 31.932V31.9333Z" fill="#5A6592"/>
<path d="M2.38663 40.8943C2.5442 39.9441 2.71074 38.8319 2.92084 37.7289C3.00026 37.3151 2.9298 37.0214 2.62363 36.7291C1.86396 36.0046 1.13503 35.2475 0.38945 34.5087C0.108897 34.232 -0.0883875 33.9278 0.0410002 33.5127C0.169107 33.1029 0.479125 32.9502 0.877536 32.8953C1.90623 32.7504 2.93108 32.5664 3.96234 32.4385C4.37741 32.3876 4.61953 32.2126 4.79504 31.8289C5.22804 30.8838 5.70075 29.9571 6.1504 29.0198C6.32975 28.6465 6.56419 28.3411 7.00616 28.3411C7.44428 28.3411 7.68512 28.6322 7.86447 29.0133C8.31669 29.9675 8.80349 30.906 9.24033 31.8667C9.41328 32.2466 9.66309 32.3823 10.0474 32.4332C11.1094 32.5729 12.1663 32.7504 13.2257 32.9071C13.5921 32.9606 13.8509 33.1459 13.9726 33.5049C14.0969 33.873 13.9713 34.1772 13.7138 34.4356C12.9157 35.2371 12.1215 36.0425 11.3118 36.8309C11.1081 37.0293 11.0159 37.2029 11.0723 37.5057C11.2759 38.5931 11.4412 39.6882 11.6308 40.7795C11.7025 41.1919 11.6744 41.5718 11.3169 41.8355C10.9775 42.0861 10.6213 42.0078 10.2754 41.8224C9.35435 41.3303 8.4243 40.8539 7.51474 40.3409C7.17013 40.1464 6.89598 40.132 6.54241 40.333C5.59186 40.8734 4.62465 41.3825 3.64976 41.8746C2.96055 42.2218 2.37254 41.825 2.38663 40.8943ZM11.2836 34.3638C10.5496 34.2529 9.87831 34.1223 9.20062 34.0571C8.61133 34.0009 8.22829 33.7399 7.98745 33.1838C7.7069 32.5351 7.37126 31.9098 7.00616 31.1632C6.63337 31.9268 6.29004 32.5664 6.00436 33.2321C5.77761 33.7621 5.40226 33.9879 4.86037 34.0492C4.1545 34.1289 3.45248 34.2516 2.78761 34.3495C3.30516 34.9094 3.79068 35.4707 4.31592 35.9902C4.68743 36.3583 4.81681 36.7565 4.71305 37.2682C4.5875 37.8895 4.49142 38.5187 4.38766 39.1452C4.36972 39.2509 4.31335 39.3854 4.43121 39.4585C4.52217 39.5146 4.61312 39.4272 4.69511 39.3828C4.99232 39.2235 5.2844 39.0538 5.58673 38.9024C7.27774 38.0553 6.6987 37.9874 8.49732 38.935C8.86883 39.1308 9.21599 39.388 9.68615 39.495C9.55548 38.7327 9.45555 38.0252 9.30695 37.3282C9.18397 36.7539 9.34538 36.3296 9.76685 35.9367C10.2806 35.459 10.7443 34.9264 11.2811 34.3638H11.2836Z" fill="#5A6592"/>
<path d="M33.3359 41.0405C33.505 40.0302 33.6575 38.9664 33.8701 37.913C33.9829 37.3517 33.9086 36.9601 33.4435 36.5607C32.6864 35.9106 32.0139 35.16 31.3041 34.4526C31.0454 34.1941 30.9096 33.8952 31.0236 33.5258C31.1427 33.142 31.4169 32.958 31.8025 32.9032C32.8632 32.7504 33.9201 32.5742 34.9821 32.4319C35.351 32.3823 35.5868 32.2387 35.7507 31.8824C36.1696 30.9661 36.6321 30.0706 37.0638 29.1608C37.2585 28.7509 37.4597 28.3489 37.9772 28.3424C38.5204 28.3358 38.7254 28.7601 38.9278 29.1817C39.3633 30.0902 39.8181 30.9895 40.2421 31.9033C40.3972 32.2387 40.6226 32.3823 40.9762 32.4293C42.0382 32.5703 43.0964 32.7413 44.1558 32.8966C44.5337 32.9514 44.8271 33.1133 44.9552 33.501C45.091 33.9148 44.9065 34.2346 44.6324 34.51C43.8906 35.2527 43.1514 36.0007 42.3892 36.7212C42.0856 37.0084 41.9921 37.2969 42.0766 37.7159C42.2739 38.7053 42.4276 39.7039 42.5903 40.6998C42.6608 41.128 42.6941 41.5613 42.2739 41.8472C41.8857 42.1109 41.5117 41.9751 41.1427 41.7767C40.2242 41.2807 39.2967 40.799 38.3846 40.2887C38.1143 40.1372 37.8991 40.1294 37.6275 40.2795C36.6577 40.8173 35.679 41.3394 34.6964 41.8537C33.9893 42.2231 33.3295 41.8472 33.3359 41.0431V41.0405ZM42.1971 34.3494C41.7602 34.2842 41.2888 34.1628 40.8148 34.1536C39.7541 34.1341 39.0328 33.7098 38.6959 32.6343C38.546 32.1552 38.2616 31.7205 37.9875 31.1619C37.6121 31.932 37.2778 32.5612 36.9946 33.2138C36.7602 33.7542 36.3784 33.997 35.8135 34.0557C35.1256 34.1275 34.444 34.2555 33.7215 34.3651C34.3134 34.9851 34.8425 35.5477 35.3831 36.1012C35.6623 36.3884 35.7866 36.7029 35.7097 37.1154C35.5663 37.8934 35.4497 38.6779 35.3062 39.5642C36.0787 39.1543 36.7705 38.7941 37.4558 38.422C37.8273 38.2197 38.1783 38.2249 38.5486 38.4325C39.1084 38.7471 39.6798 39.0408 40.2511 39.3358C40.3562 39.3893 40.4727 39.5381 40.5893 39.4298C40.6867 39.3397 40.6213 39.1817 40.5996 39.0551C40.4945 38.4455 40.3933 37.836 40.2767 37.229C40.1858 36.7578 40.2972 36.3792 40.6406 36.0333C41.1722 35.4955 41.6705 34.9212 42.1958 34.3481L42.1971 34.3494Z" fill="#5A6592"/>
<path d="M29.444 27.353C29.444 27.3047 29.4479 27.4026 29.444 27.5005C29.4235 28.0305 29.0917 28.3999 28.6306 28.4129C28.1719 28.4247 27.8094 28.0735 27.7658 27.5462C27.6954 26.7029 27.6352 25.8584 27.5762 25.0139C27.452 23.2438 27.3341 21.4725 27.2099 19.7025C27.1701 19.1386 27.484 18.6804 27.9606 18.6282C28.4397 18.576 28.8304 18.8867 28.8893 19.461C28.9944 20.4805 29.0584 21.5052 29.1289 22.5272C29.2365 24.0871 29.3339 25.6469 29.4453 27.353H29.444Z" fill="#5A6592"/>
<path d="M17.5326 20.0811C17.3661 22.5508 17.2047 25.0217 17.0279 27.4901C16.9843 28.0893 16.6026 28.4325 16.0991 28.3934C15.6226 28.3555 15.3241 27.9874 15.3587 27.3857C15.4663 25.5491 15.597 23.7125 15.7174 21.8772C15.7609 21.2102 15.807 20.5445 15.8429 19.8775C15.8557 19.6321 15.8609 19.3841 15.9608 19.1582C16.1312 18.7732 16.4373 18.5761 16.8473 18.6426C17.2508 18.7079 17.5096 18.9624 17.5429 19.3971C17.5595 19.6242 17.5455 19.8527 17.5455 20.0811C17.5416 20.0811 17.5365 20.0811 17.5326 20.0811Z" fill="#5A6592"/>
</g>
<defs>
<clipPath id="clip0_1_153">
<rect width="45" height="42" fill="white"/>
</clipPath>
</defs>
</svg>
