<svg width="49" height="58" viewBox="0 0 49 58" fill="none" xmlns="http://www.w3.org/2000/svg">
<g clip-path="url(#clip0_1_160)">
<path d="M0.534874 58C0.0514343 57.5569 -0.169142 56.2198 0.149722 55.6475C0.321155 55.3416 0.598876 55.1716 0.941741 55.1773C1.33375 55.1829 1.66404 55.3778 1.77605 55.7529C1.88691 56.1246 2.11205 56.2005 2.45263 56.1994C4.50868 56.1926 6.56473 56.1892 8.62078 56.2016C9.06307 56.2039 9.23679 56.0396 9.22422 55.6022C9.20365 54.8872 9.21508 54.171 9.22193 53.4548C9.22422 53.2305 9.23451 53.0004 9.28022 52.7817C9.38537 52.2877 9.8048 51.9636 10.2517 52.0055C10.7157 52.0486 11.0643 52.4112 11.0768 52.9325C11.0974 53.8175 11.1077 54.7036 11.0768 55.5886C11.0608 56.0691 11.2517 56.2039 11.71 56.2028C20.2199 56.1937 28.7287 56.1926 37.2386 56.205C37.7517 56.205 37.898 56.0181 37.8797 55.5376C37.85 54.7285 37.8649 53.9183 37.874 53.1081C37.882 52.4407 38.2318 52.0146 38.7632 51.9999C39.3038 51.9851 39.7244 52.4384 39.7404 53.1036C39.7598 53.9126 39.7666 54.724 39.7404 55.5331C39.7244 56.009 39.8718 56.2096 40.3849 56.2039C42.441 56.1835 44.497 56.1926 46.5531 56.1982C46.8697 56.1982 47.08 56.1393 47.1862 55.7858C47.312 55.3642 47.6594 55.1331 48.1063 55.1818C48.568 55.2317 48.8846 55.5161 48.9326 55.9863C49.0069 56.7116 49.16 57.4708 48.4194 57.9977H0.534874V58Z" fill="white"/>
<path d="M29.3321 17.2614C32.1699 17.2614 35.0077 17.2603 37.8466 17.2614C38.9678 17.2614 39.2855 17.5719 39.2889 18.6643C39.2924 19.5878 39.2969 20.5113 39.2855 21.4349C39.2821 21.7533 39.3632 22.0128 39.5792 22.2575C39.9644 22.6927 40.1849 23.2105 40.2547 23.7884C40.3587 24.6519 40.3964 25.5199 40.2398 26.3766C39.9552 27.9438 38.7049 28.9931 37.0889 29.0611C36.8797 29.0701 36.6683 29.0792 36.4603 29.0622C36.0934 29.0327 35.9254 29.1891 35.8214 29.5427C34.8808 32.7439 32.9139 35.1348 29.9584 36.7292C29.7173 36.8595 29.5756 37.0091 29.5824 37.2969C29.595 37.8624 29.5893 38.4278 29.5858 38.9933C29.5836 39.263 29.683 39.4443 29.9813 39.4171C31.707 39.2596 33.2728 39.9315 34.882 40.3553C37.1437 40.9503 39.3975 41.5803 41.6456 42.2251C45.7462 43.4024 48.6411 46.9923 48.9177 51.2088C48.936 51.4898 48.976 51.7743 48.9463 52.0519C48.8823 52.6672 48.5371 52.9788 47.9966 52.9607C47.4605 52.9426 47.1508 52.606 47.1234 51.9805C47.0605 50.5504 46.7885 49.1759 46.0651 47.917C44.9085 45.9033 43.209 44.5617 40.9541 43.9316C38.5358 43.2562 36.1094 42.6137 33.6945 41.927C33.2419 41.7979 33.1139 41.9089 33.0099 42.3384C32.0602 46.2659 28.6064 49.0513 24.5252 49.0445C20.1422 49.0377 17.0118 46.1311 16.045 42.6942C15.7958 41.8115 15.9501 41.7469 14.8712 42.0506C12.638 42.6795 10.3911 43.2608 8.1602 43.8965C4.77269 44.8608 2.71207 47.0682 2.00005 50.4847C1.90062 50.9595 1.93034 51.4604 1.87662 51.9465C1.79891 52.6423 1.45604 52.9845 0.893742 52.9607C0.332586 52.938 0.043436 52.5652 0.034293 51.8536C-0.0159939 47.6597 2.73607 43.6936 6.81731 42.4075C10.2791 41.3163 13.8072 40.4301 17.3158 39.4885C17.7799 39.3638 18.301 39.4125 18.7936 39.4329C19.2496 39.4511 19.4267 39.2686 19.3776 38.8358C19.3753 38.8176 19.3753 38.7972 19.3776 38.7791C19.5627 37.5598 19.2062 36.7689 18.0084 36.081C15.6758 34.7416 14.1889 32.6124 13.3089 30.0889C12.9637 29.0985 12.974 29.0951 11.9363 29.0656C10.5225 29.0248 9.22765 28.2237 8.88821 26.916C8.46306 25.2752 8.31334 23.5924 9.49966 22.1193C9.67109 21.9074 9.6768 21.6717 9.6768 21.4258C9.6768 20.5023 9.67109 19.5787 9.68023 18.6552C9.69052 17.5787 10.0071 17.2648 11.078 17.2625C12.6586 17.2591 14.2403 17.2614 15.8209 17.2625C15.9924 17.2625 16.1661 17.2603 16.333 17.2897C16.8404 17.3815 17.1581 17.7577 17.1341 18.2371C17.1078 18.7515 16.7913 19.0359 16.309 19.0971C15.8964 19.1493 15.4724 19.1277 15.0541 19.1232C14.7478 19.1198 14.5935 19.2422 14.5958 19.5549C14.6129 22.2496 14.4221 24.9567 14.6655 27.6378C15.0369 31.7229 18.3867 35.2278 22.4405 36.0232C28.1012 37.1349 33.3711 33.5201 34.2922 27.8758C34.3985 27.2276 34.4202 26.5624 34.426 25.9041C34.4431 23.9063 34.4328 21.9085 34.4317 19.9107C34.4317 19.388 34.1738 19.1262 33.6579 19.1255C29.3916 19.1255 25.1252 19.1255 20.8588 19.1243C20.6302 19.1243 20.3971 19.1391 20.1753 19.0994C19.6885 19.0121 19.381 18.7198 19.3696 18.2167C19.3582 17.7147 19.6496 17.4053 20.1342 17.3011C20.3536 17.2535 20.5891 17.2648 20.8165 17.2648C23.6543 17.2625 26.4921 17.2637 29.331 17.2637L29.3321 17.2614ZM27.7058 39.4341C27.7058 38.9332 27.6932 38.5377 27.7092 38.1434C27.7252 37.7513 27.5789 37.6641 27.1926 37.7547C25.3903 38.1774 23.58 38.1876 21.7788 37.7479C21.4016 37.6561 21.2451 37.7253 21.2531 38.1264C21.2668 38.9162 21.2314 39.7072 21.2668 40.4959C21.3365 42.0551 22.5902 43.3741 24.0817 43.4965C25.8418 43.6415 27.2166 42.6931 27.6224 41.067C27.7664 40.4891 27.6715 39.9055 27.7058 39.4307V39.4341ZM18.7307 41.2845C17.605 41.2845 17.5638 41.3389 17.8633 42.3429C19.1639 46.709 24.4909 48.6014 28.3252 46.0552C29.8304 45.0557 30.7916 43.6733 31.2076 41.9293C31.2544 41.7355 31.4202 41.3854 31.1493 41.3355C30.6716 41.2483 30.1607 41.2641 29.675 41.3253C29.3321 41.3684 29.3698 41.7673 29.2784 42.0177C28.5572 44.0098 26.6818 45.3549 24.5823 45.3685C22.3548 45.3832 20.4313 44.0948 19.7205 42.0268C19.5205 41.4443 19.277 41.1372 18.7307 41.2845ZM36.2409 25.0281C36.2409 25.0281 36.2363 25.0281 36.234 25.0281C36.234 25.5924 36.2317 26.1579 36.2351 26.7222C36.2351 26.9058 36.1951 27.1392 36.45 27.1823C37.3963 27.3443 38.3472 27.0021 38.4363 25.8757C38.474 25.4077 38.4501 24.9352 38.4455 24.4638C38.4329 23.376 37.8146 22.8241 36.7003 22.8581C36.3494 22.8683 36.2294 23.0009 36.2374 23.3329C36.2511 23.8972 36.2409 24.4627 36.2409 25.027V25.0281ZM12.7272 25.0417H12.7237C12.7237 24.4593 12.7237 23.8757 12.7237 23.2933C12.7237 23.0995 12.7112 22.9318 12.4563 22.8706C11.5066 22.6417 10.5751 23.3068 10.5225 24.2825C10.4997 24.7142 10.5123 25.1471 10.5168 25.58C10.5283 26.7165 11.1374 27.2673 12.2746 27.2151C12.6243 27.1993 12.7409 27.0644 12.7317 26.7347C12.7169 26.1715 12.7272 25.6072 12.7272 25.0429V25.0417ZM11.5454 20.0739H11.5477C11.5477 20.2994 11.5477 20.5249 11.5477 20.7493C11.5477 20.917 11.598 21.0201 11.8003 21.0473C12.5203 21.1425 12.7226 20.9793 12.7249 20.2654C12.7249 20.0773 12.7077 19.8881 12.7283 19.7022C12.7763 19.2614 12.5946 19.1062 12.1454 19.1141C11.7283 19.1209 11.478 19.2071 11.5431 19.6807C11.5603 19.8099 11.5454 19.9436 11.5454 20.0751V20.0739ZM37.4146 20.1498C37.4146 20.0003 37.3997 19.8484 37.4169 19.7011C37.4672 19.2626 37.2843 19.1085 36.8363 19.113C36.4123 19.1175 36.186 19.2195 36.2351 19.6818C36.2591 19.9039 36.266 20.1351 36.234 20.355C36.1391 21.0054 36.546 21.0224 37.0249 21.0405C37.6306 21.062 37.3449 20.628 37.4112 20.3753C37.4295 20.3051 37.4134 20.2258 37.4134 20.151L37.4146 20.1498Z" fill="white"/>
<path d="M11.8437 7.78024C11.902 4.72069 13.2609 2.36937 15.9958 0.94498C18.7307 -0.480543 21.4656 -0.265242 24.06 1.40165C24.3823 1.60902 24.5891 1.62375 24.9137 1.41071C29.7801 -1.78142 36.09 0.908719 37.098 6.59268C37.858 10.8806 34.5585 15.1084 30.1641 15.5254C28.2407 15.7079 26.5035 15.2648 24.9194 14.2053C24.6029 13.9934 24.3914 13.9809 24.0657 14.2008C19.2084 17.4733 12.6551 14.5713 11.8506 8.79556C11.8037 8.46354 11.8448 8.11906 11.8448 7.78024H11.8437ZM13.6792 7.76891C13.662 11.7577 17.4873 14.628 21.3102 13.4959C23.916 12.7254 25.5537 10.5327 25.6452 7.69525C25.7023 5.92298 26.9675 4.50766 28.7847 4.18357C30.3778 3.89915 32.123 4.87933 32.7528 6.41138C33.4111 8.01367 32.867 9.86073 31.4122 10.8103C30.0956 11.6693 28.7287 11.6885 27.3766 10.884C27.0429 10.6857 26.9081 10.7117 26.748 11.0687C26.564 11.4789 26.324 11.871 26.06 12.237C25.8475 12.5305 25.9 12.6812 26.196 12.858C27.1321 13.4166 28.1481 13.726 29.2315 13.7339C32.9311 13.7611 35.6717 10.629 35.2762 7.1604C34.8728 3.61472 31.4316 1.19428 27.9332 2.04302C25.1823 2.71045 23.4543 4.92919 23.3148 7.97401C23.1971 10.5508 20.461 12.2098 18.1113 11.1276C16.1649 10.2324 15.3878 7.99781 16.3695 6.12242C17.349 4.25156 19.6542 3.58073 21.5056 4.66063C21.8942 4.88727 22.0885 4.8986 22.2657 4.45213C22.3971 4.12238 22.572 3.79036 22.8028 3.52407C23.1788 3.0912 23.0302 2.88383 22.5902 2.6402C18.5947 0.42259 13.6975 3.23511 13.678 7.76778L13.6792 7.76891ZM31.147 7.78817C31.1436 6.77399 30.3721 6.00797 29.3493 6.0023C28.2989 5.99664 27.5172 6.77286 27.5241 7.81764C27.5309 8.85108 28.2738 9.58424 29.3207 9.58991C30.3938 9.59557 31.1504 8.84882 31.147 7.78817ZM21.4462 7.82557C21.4519 6.80005 20.6965 6.0159 19.6896 6.0023C18.6301 5.98757 17.8267 6.75133 17.8198 7.77797C17.813 8.81709 18.5913 9.58991 19.6462 9.59104C20.6862 9.59104 21.4405 8.85222 21.4462 7.82557Z" fill="white"/>
</g>
<defs>
<clipPath id="clip0_1_160">
<rect width="49" height="58" fill="white"/>
</clipPath>
</defs>
</svg>
