<svg width="18" height="18" viewBox="0 0 18 18" fill="none" xmlns="http://www.w3.org/2000/svg">
<g clip-path="url(#clip0_1_189)">
<path d="M5.20502 3.74977C5.20482 4.1476 5.04659 4.52905 4.76515 4.81021C4.4837 5.09138 4.10209 5.24922 3.70427 5.24902C3.30644 5.24882 2.92499 5.0906 2.64383 4.80915C2.36266 4.52771 2.20482 4.1461 2.20502 3.74827C2.20522 3.35045 2.36344 2.969 2.64489 2.68783C2.92633 2.40667 3.30794 2.24882 3.70577 2.24902C4.10359 2.24922 4.48504 2.40745 4.76621 2.68889C5.04737 2.97034 5.20522 3.35195 5.20502 3.74977V3.74977ZM5.25002 6.35977H2.25002V15.7498H5.25002V6.35977ZM9.99002 6.35977H7.00502V15.7498H9.96002V10.8223C9.96002 8.07727 13.5375 7.82227 13.5375 10.8223V15.7498H16.5V9.80227C16.5 5.17477 11.205 5.34727 9.96002 7.61977L9.99002 6.35977V6.35977Z" fill="black"/>
</g>
<defs>
<clipPath id="clip0_1_189">
<rect width="18" height="18" fill="white"/>
</clipPath>
</defs>
</svg>
