<svg width="197" height="50" viewBox="0 0 197 50" fill="none" xmlns="http://www.w3.org/2000/svg">
<path fill-rule="evenodd" clip-rule="evenodd" d="M10.9509 41.5973H8.68185C8.61713 41.2252 8.49782 40.8955 8.3239 40.6083C8.14998 40.3171 7.93359 40.0704 7.67473 39.8682C7.41587 39.6659 7.12061 39.5143 6.78895 39.4132C6.46133 39.308 6.10743 39.2554 5.72723 39.2554C5.05177 39.2554 4.45316 39.4253 3.9314 39.765C3.40964 40.1007 3.00113 40.5942 2.70587 41.2454C2.41061 41.8925 2.26298 42.6833 2.26298 43.6176C2.26298 44.5681 2.41061 45.3689 2.70587 46.0201C3.00518 46.6672 3.41369 47.1566 3.9314 47.4883C4.45316 47.8159 5.04975 47.9797 5.72116 47.9797C6.09327 47.9797 6.44111 47.9312 6.76468 47.8341C7.0923 47.733 7.38554 47.5854 7.6444 47.3912C7.9073 47.1971 8.12773 46.9585 8.3057 46.6753C8.48771 46.3922 8.61309 46.0686 8.68185 45.7046L10.9509 45.7167C10.866 46.3073 10.6819 46.8614 10.3988 47.3791C10.1197 47.8968 9.75368 48.3539 9.30068 48.7502C8.84768 49.1426 8.31783 49.45 7.71113 49.6724C7.10443 49.8908 6.431 50 5.69083 50C4.59877 50 3.62401 49.7472 2.76654 49.2417C1.90908 48.7361 1.23362 48.006 0.740172 47.0515C0.246724 46.0969 0 44.9523 0 43.6176C0 42.2788 0.248746 41.1342 0.746239 40.1837C1.24373 39.2291 1.92121 38.4991 2.77868 37.9935C3.63614 37.4879 4.60686 37.2351 5.69083 37.2351C6.38246 37.2351 7.02556 37.3322 7.62013 37.5263C8.21469 37.7205 8.74454 38.0056 9.20968 38.3818C9.67481 38.7539 10.057 39.2109 10.3563 39.7529C10.6597 40.2908 10.8579 40.9056 10.9509 41.5973ZM13.0122 37.405H15.263V42.6651H21.0206V37.405H23.2775V49.8302H21.0206V44.5519H15.263V49.8302H13.0122V37.405ZM36.0758 47.0575C36.5773 46.103 36.8281 44.9564 36.8281 43.6176C36.8281 42.2788 36.5773 41.1342 36.0758 40.1837C35.5783 39.2291 34.8988 38.4991 34.0373 37.9935C33.1798 37.4879 32.2071 37.2351 31.1191 37.2351C30.031 37.2351 29.0563 37.4879 28.1948 37.9935C27.3373 38.4991 26.6578 39.2291 26.1563 40.1837C25.6588 41.1342 25.41 42.2788 25.41 43.6176C25.41 44.9523 25.6588 46.0969 26.1563 47.0515C26.6578 48.002 27.3373 48.732 28.1948 49.2417C29.0563 49.7472 30.031 50 31.1191 50C32.2071 50 33.1798 49.7472 34.0373 49.2417C34.8988 48.7361 35.5783 48.008 36.0758 47.0575ZM34.1222 41.2332C34.4175 41.8804 34.5651 42.6752 34.5651 43.6176C34.5651 44.56 34.4175 45.3568 34.1222 46.008C33.831 46.6551 33.4265 47.1465 32.9088 47.4822C32.3911 47.8139 31.7945 47.9797 31.1191 47.9797C30.4436 47.9797 29.847 47.8139 29.3293 47.4822C28.8116 47.1465 28.4051 46.6551 28.1098 46.008C27.8186 45.3568 27.673 44.56 27.673 43.6176C27.673 42.6752 27.8186 41.8804 28.1098 41.2332C28.4051 40.5821 28.8116 40.0906 29.3293 39.759C29.847 39.4233 30.4436 39.2554 31.1191 39.2554C31.7945 39.2554 32.3911 39.4233 32.9088 39.759C33.4265 40.0906 33.831 40.5821 34.1222 41.2332ZM41.2069 49.8302H38.9561V37.405H41.2069V49.8302ZM52.0107 41.5973H54.2798C54.1867 40.9056 53.9885 40.2908 53.6852 39.7529C53.3859 39.2109 53.0037 38.7539 52.5385 38.3818C52.0734 38.0056 51.5435 37.7205 50.949 37.5263C50.3544 37.3322 49.7113 37.2351 49.0197 37.2351C47.9357 37.2351 46.965 37.4879 46.1075 37.9935C45.2501 38.4991 44.5726 39.2291 44.0751 40.1837C43.5776 41.1342 43.3289 42.2788 43.3289 43.6176C43.3289 44.9523 43.5756 46.0969 44.069 47.0515C44.5625 48.006 45.2379 48.7361 46.0954 49.2417C46.9529 49.7472 47.9276 50 49.0197 50C49.7598 50 50.4333 49.8908 51.04 49.6724C51.6467 49.45 52.1765 49.1426 52.6295 48.7502C53.0825 48.3539 53.4486 47.8968 53.7277 47.3791C54.0108 46.8614 54.1948 46.3073 54.2798 45.7167L52.0107 45.7046C51.9419 46.0686 51.8166 46.3922 51.6346 46.6753C51.4566 46.9585 51.2361 47.1971 50.9732 47.3912C50.7144 47.5854 50.4212 47.733 50.0935 47.8341C49.77 47.9312 49.4221 47.9797 49.05 47.9797C48.3786 47.9797 47.782 47.8159 47.2603 47.4883C46.7425 47.1566 46.334 46.6672 46.0347 46.0201C45.7395 45.3689 45.5918 44.5681 45.5918 43.6176C45.5918 42.6833 45.7395 41.8925 46.0347 41.2454C46.33 40.5942 46.7385 40.1007 47.2603 39.765C47.782 39.4253 48.3806 39.2554 49.0561 39.2554C49.4363 39.2554 49.7902 39.308 50.1178 39.4132C50.4495 39.5143 50.7447 39.6659 51.0036 39.8682C51.2624 40.0704 51.4788 40.3171 51.6528 40.6083C51.8267 40.8955 51.946 41.2252 52.0107 41.5973ZM56.341 37.405H64.4222V39.2918H58.5919V42.6651H64.0036V44.5519H58.5919V47.9433H64.4708V49.8302H56.341V37.405ZM74.6785 37.405H66.7186V49.8302H68.9694V44.5519H74.1324V42.6651H68.9694V39.2918H74.6785V37.405ZM87.8317 43.6176C87.8317 44.9564 87.5809 46.103 87.0794 47.0575C86.5819 48.008 85.9024 48.7361 85.0409 49.2417C84.1834 49.7472 83.2107 50 82.1226 50C81.0346 50 80.0599 49.7472 79.1984 49.2417C78.3409 48.732 77.6614 48.002 77.1599 47.0515C76.6624 46.0969 76.4136 44.9523 76.4136 43.6176C76.4136 42.2788 76.6624 41.1342 77.1599 40.1837C77.6614 39.2291 78.3409 38.4991 79.1984 37.9935C80.0599 37.4879 81.0346 37.2351 82.1226 37.2351C83.2107 37.2351 84.1834 37.4879 85.0409 37.9935C85.9024 38.4991 86.5819 39.2291 87.0794 40.1837C87.5809 41.1342 87.8317 42.2788 87.8317 43.6176ZM85.5687 43.6176C85.5687 42.6752 85.4211 41.8804 85.1258 41.2332C84.8346 40.5821 84.4301 40.0906 83.9124 39.759C83.3947 39.4233 82.7981 39.2554 82.1226 39.2554C81.4472 39.2554 80.8506 39.4233 80.3329 39.759C79.8152 40.0906 79.4087 40.5821 79.1134 41.2332C78.8222 41.8804 78.6766 42.6752 78.6766 43.6176C78.6766 44.56 78.8222 45.3568 79.1134 46.008C79.4087 46.6551 79.8152 47.1465 80.3329 47.4822C80.8506 47.8139 81.4472 47.9797 82.1226 47.9797C82.7981 47.9797 83.3947 47.8139 83.9124 47.4822C84.4301 47.1465 84.8346 46.6551 85.1258 46.008C85.4211 45.3568 85.5687 44.56 85.5687 43.6176ZM94.6191 37.405H89.9597V49.8302H92.2105V45.2799H94.5009L96.9428 49.8302H99.4545L96.767 44.9111C96.8479 44.8784 96.9267 44.8437 97.0034 44.8067C97.6587 44.4872 98.1541 44.0362 98.4898 43.4538C98.8296 42.8673 98.9995 42.1757 98.9995 41.3789C98.9995 40.5861 98.8316 39.8924 98.4959 39.2979C98.1642 38.6993 97.6728 38.2341 97.0216 37.9025C96.3745 37.5708 95.5736 37.405 94.6191 37.405ZM92.2105 43.4113H94.2854C94.8436 43.4113 95.3006 43.3344 95.6566 43.1807C96.0125 43.023 96.2754 42.7945 96.4453 42.4952C96.6192 42.1918 96.7062 41.8197 96.7062 41.3789C96.7062 40.938 96.6192 40.5618 96.4453 40.2504C96.2713 39.9349 96.0064 39.6963 95.6505 39.5345C95.2946 39.3687 94.8355 39.2857 94.2733 39.2857H92.2105V43.4113ZM100.179 37.405H102.6L104.839 46.5358H104.954L107.345 37.405H109.547L111.943 46.5419H112.053L114.291 37.405H116.712L113.205 49.8302H110.985L108.497 41.1119H108.4L105.907 49.8302H103.686L100.179 37.405ZM116.298 49.8302H118.7L119.728 46.7663H124.399L125.429 49.8302H127.831L123.451 37.405H120.672L116.298 49.8302ZM123.792 44.9584L122.11 39.9531H122.013L120.334 44.9584H123.792ZM129.468 37.405H134.127C135.082 37.405 135.883 37.5708 136.53 37.9025C137.181 38.2341 137.672 38.6993 138.004 39.2979C138.34 39.8924 138.508 40.5861 138.508 41.3789C138.508 42.1757 138.338 42.8673 137.998 43.4538C137.662 44.0362 137.167 44.4872 136.512 44.8067C136.435 44.8437 136.356 44.8784 136.275 44.9111L138.963 49.8302H136.451L134.009 45.2799H131.719V49.8302H129.468V37.405ZM133.794 43.4113H131.719V39.2857H133.781C134.344 39.2857 134.803 39.3687 135.159 39.5345C135.515 39.6963 135.78 39.9349 135.953 40.2504C136.127 40.5618 136.214 40.938 136.214 41.3789C136.214 41.8197 136.127 42.1918 135.953 42.4952C135.784 42.7945 135.521 43.023 135.165 43.1807C134.809 43.3344 134.352 43.4113 133.794 43.4113ZM140.58 49.8302H144.79C146.052 49.8302 147.132 49.5814 148.03 49.0839C148.932 48.5864 149.621 47.8725 150.099 46.9423C150.58 46.012 150.821 44.8997 150.821 43.6054C150.821 42.3152 150.582 41.207 150.105 40.2807C149.627 39.3545 148.944 38.6447 148.054 38.1512C147.168 37.6537 146.109 37.405 144.875 37.405H140.58V49.8302ZM144.681 47.8827H142.83V39.3525H144.748C145.589 39.3525 146.293 39.5102 146.859 39.8257C147.429 40.1371 147.86 40.6083 148.151 41.2393C148.442 41.8662 148.588 42.6549 148.588 43.6054C148.588 44.5559 148.442 45.3487 148.151 45.9837C147.86 46.6147 147.425 47.0899 146.847 47.4094C146.268 47.7249 145.546 47.8827 144.681 47.8827ZM153.431 49.9636C153.063 49.9636 152.747 49.8342 152.484 49.5753C152.222 49.3165 152.092 49.001 152.096 48.6289C152.092 48.2649 152.222 47.9534 152.484 47.6946C152.747 47.4357 153.063 47.3063 153.431 47.3063C153.787 47.3063 154.096 47.4357 154.359 47.6946C154.626 47.9534 154.762 48.2649 154.766 48.6289C154.762 48.8756 154.697 49.1001 154.572 49.3023C154.45 49.5046 154.288 49.6663 154.086 49.7877C153.888 49.905 153.67 49.9636 153.431 49.9636ZM165.497 41.5973H167.766C167.673 40.9056 167.474 40.2908 167.171 39.7529C166.872 39.2109 166.49 38.7539 166.024 38.3818C165.559 38.0056 165.029 37.7205 164.435 37.5263C163.84 37.3322 163.197 37.2351 162.506 37.2351C161.422 37.2351 160.451 37.4879 159.593 37.9935C158.736 38.4991 158.059 39.2291 157.561 40.1837C157.064 41.1342 156.815 42.2788 156.815 43.6176C156.815 44.9523 157.061 46.0969 157.555 47.0515C158.048 48.006 158.724 48.7361 159.581 49.2417C160.439 49.7472 161.414 50 162.506 50C163.246 50 163.919 49.8908 164.526 49.6724C165.133 49.45 165.662 49.1426 166.115 48.7502C166.568 48.3539 166.934 47.8968 167.214 47.3791C167.497 46.8614 167.681 46.3073 167.766 45.7167L165.497 45.7046C165.428 46.0686 165.302 46.3922 165.12 46.6753C164.942 46.9585 164.722 47.1971 164.459 47.3912C164.2 47.5854 163.907 47.733 163.579 47.8341C163.256 47.9312 162.908 47.9797 162.536 47.9797C161.865 47.9797 161.268 47.8159 160.746 47.4883C160.228 47.1566 159.82 46.6672 159.521 46.0201C159.225 45.3689 159.078 44.5681 159.078 43.6176C159.078 42.6833 159.225 41.8925 159.521 41.2454C159.816 40.5942 160.224 40.1007 160.746 39.765C161.268 39.4253 161.867 39.2554 162.542 39.2554C162.922 39.2554 163.276 39.308 163.604 39.4132C163.935 39.5143 164.231 39.6659 164.489 39.8682C164.748 40.0704 164.965 40.3171 165.139 40.6083C165.313 40.8955 165.432 41.2252 165.497 41.5973ZM180.929 43.6176C180.929 44.9564 180.679 46.103 180.177 47.0575C179.68 48.008 179 48.7361 178.139 49.2417C177.281 49.7472 176.308 50 175.22 50C174.132 50 173.158 49.7472 172.296 49.2417C171.439 48.732 170.759 48.002 170.258 47.0515C169.76 46.0969 169.511 44.9523 169.511 43.6176C169.511 42.2788 169.76 41.1342 170.258 40.1837C170.759 39.2291 171.439 38.4991 172.296 37.9935C173.158 37.4879 174.132 37.2351 175.22 37.2351C176.308 37.2351 177.281 37.4879 178.139 37.9935C179 38.4991 179.68 39.2291 180.177 40.1837C180.679 41.1342 180.929 42.2788 180.929 43.6176ZM178.667 43.6176C178.667 42.6752 178.519 41.8804 178.224 41.2332C177.932 40.5821 177.528 40.0906 177.01 39.759C176.492 39.4233 175.896 39.2554 175.22 39.2554C174.545 39.2554 173.948 39.4233 173.431 39.759C172.913 40.0906 172.507 40.5821 172.211 41.2332C171.92 41.8804 171.774 42.6752 171.774 43.6176C171.774 44.56 171.92 45.3568 172.211 46.008C172.507 46.6551 172.913 47.1465 173.431 47.4822C173.948 47.8139 174.545 47.9797 175.22 47.9797C175.896 47.9797 176.492 47.8139 177.01 47.4822C177.528 47.1465 177.932 46.6551 178.224 46.008C178.519 45.3568 178.667 44.56 178.667 43.6176ZM185.812 37.405H183.057V49.8302H185.217V41.2757H185.333L188.767 49.7938H190.38L193.814 41.2939H193.93V49.8302H196.089V37.405H193.335L189.646 46.4084H189.501L185.812 37.405Z" fill="black"/>
<path fill-rule="evenodd" clip-rule="evenodd" d="M137.711 10.6779C137.711 16.5751 132.93 21.3558 127.033 21.3558C121.135 21.3558 116.355 16.5751 116.355 10.6779C116.355 4.78065 121.135 0 127.033 0C132.93 0 137.711 4.78065 137.711 10.6779Z" fill="#DB7D7F"/>
<path fill-rule="evenodd" clip-rule="evenodd" d="M109.236 0H87.8804V21.3558H109.236V0Z" fill="#4BD1A0"/>
<path fill-rule="evenodd" clip-rule="evenodd" d="M70.084 0L59.4061 21.3558H80.7618L70.084 0Z" fill="#5A6592"/>
<path d="M70.084 0L59.4061 21.3558H80.7618L70.084 0Z" fill="#5A6592"/>
</svg>
