<svg width="95" height="95" viewBox="0 0 95 95" fill="none" xmlns="http://www.w3.org/2000/svg">
<rect width="95" height="95" fill="#4BD1A0"/>
<g clip-path="url(#clip0_0_1)">
<path d="M23.5349 76C23.0514 75.5569 22.8309 74.2198 23.1497 73.6475C23.3212 73.3416 23.5989 73.1716 23.9417 73.1773C24.3337 73.1829 24.664 73.3778 24.776 73.7529C24.8869 74.1246 25.1121 74.2005 25.4526 74.1994C27.5087 74.1926 29.5647 74.1892 31.6208 74.2016C32.0631 74.2039 32.2368 74.0396 32.2242 73.6022C32.2036 72.8872 32.2151 72.171 32.2219 71.4548C32.2242 71.2305 32.2345 71.0004 32.2802 70.7817C32.3854 70.2877 32.8048 69.9636 33.2517 70.0055C33.7157 70.0486 34.0643 70.4112 34.0768 70.9325C34.0974 71.8175 34.1077 72.7036 34.0768 73.5886C34.0608 74.0691 34.2517 74.2039 34.71 74.2028C43.2199 74.1937 51.7287 74.1926 60.2386 74.205C60.7517 74.205 60.898 74.0181 60.8797 73.5376C60.85 72.7285 60.8649 71.9183 60.874 71.1081C60.882 70.4407 61.2318 70.0146 61.7632 69.9999C62.3038 69.9851 62.7244 70.4384 62.7404 71.1036C62.7598 71.9126 62.7666 72.724 62.7404 73.5331C62.7244 74.009 62.8718 74.2096 63.3849 74.2039C65.441 74.1835 67.497 74.1926 69.5531 74.1982C69.8697 74.1982 70.08 74.1393 70.1862 73.7858C70.312 73.3642 70.6594 73.1331 71.1063 73.1818C71.568 73.2317 71.8846 73.5161 71.9326 73.9863C72.0069 74.7116 72.16 75.4708 71.4194 75.9977H23.5349V76Z" fill="white"/>
<path d="M52.3321 35.2614C55.1699 35.2614 58.0077 35.2603 60.8466 35.2614C61.9678 35.2614 62.2855 35.5719 62.2889 36.6643C62.2924 37.5878 62.2969 38.5113 62.2855 39.4349C62.2821 39.7533 62.3632 40.0128 62.5792 40.2575C62.9644 40.6927 63.1849 41.2105 63.2547 41.7884C63.3587 42.6519 63.3964 43.5199 63.2398 44.3766C62.9552 45.9438 61.7049 46.9931 60.0889 47.0611C59.8797 47.0701 59.6683 47.0792 59.4603 47.0622C59.0934 47.0327 58.9254 47.1891 58.8214 47.5427C57.8808 50.7439 55.9139 53.1348 52.9584 54.7292C52.7173 54.8595 52.5756 55.0091 52.5824 55.2969C52.595 55.8624 52.5893 56.4278 52.5858 56.9933C52.5836 57.263 52.683 57.4443 52.9813 57.4171C54.707 57.2596 56.2728 57.9315 57.882 58.3553C60.1437 58.9503 62.3975 59.5803 64.6456 60.2251C68.7462 61.4024 71.6411 64.9923 71.9177 69.2088C71.936 69.4898 71.976 69.7743 71.9463 70.0519C71.8823 70.6672 71.5371 70.9788 70.9966 70.9607C70.4605 70.9426 70.1508 70.606 70.1234 69.9805C70.0605 68.5504 69.7885 67.1759 69.0651 65.917C67.9085 63.9033 66.209 62.5617 63.9541 61.9316C61.5358 61.2562 59.1094 60.6137 56.6945 59.927C56.2419 59.7979 56.1139 59.9089 56.0099 60.3384C55.0602 64.2659 51.6064 67.0513 47.5252 67.0445C43.1422 67.0377 40.0118 64.1311 39.045 60.6942C38.7958 59.8115 38.9501 59.7469 37.8712 60.0506C35.638 60.6795 33.3911 61.2608 31.1602 61.8965C27.7727 62.8608 25.7121 65.0682 25.0001 68.4847C24.9006 68.9595 24.9303 69.4604 24.8766 69.9465C24.7989 70.6423 24.456 70.9845 23.8937 70.9607C23.3326 70.938 23.0434 70.5652 23.0343 69.8536C22.984 65.6597 25.7361 61.6936 29.8173 60.4075C33.2791 59.3163 36.8072 58.4301 40.3158 57.4885C40.7798 57.3638 41.301 57.4125 41.7936 57.4329C42.2496 57.4511 42.4267 57.2686 42.3776 56.8358C42.3753 56.8176 42.3753 56.7972 42.3776 56.7791C42.5627 55.5598 42.2062 54.7689 41.0084 54.081C38.6758 52.7416 37.1889 50.6124 36.3089 48.0889C35.9637 47.0985 35.974 47.0951 34.9363 47.0656C33.5225 47.0248 32.2277 46.2237 31.8882 44.916C31.4631 43.2752 31.3133 41.5924 32.4997 40.1193C32.6711 39.9074 32.6768 39.6717 32.6768 39.4258C32.6768 38.5023 32.6711 37.5787 32.6802 36.6552C32.6905 35.5787 33.0071 35.2648 34.078 35.2625C35.6586 35.2591 37.2403 35.2614 38.8209 35.2625C38.9924 35.2625 39.1661 35.2603 39.333 35.2897C39.8404 35.3815 40.1581 35.7577 40.1341 36.2371C40.1078 36.7515 39.7913 37.0359 39.309 37.0971C38.8964 37.1493 38.4724 37.1277 38.0541 37.1232C37.7478 37.1198 37.5935 37.2422 37.5958 37.5549C37.6129 40.2496 37.4221 42.9567 37.6655 45.6378C38.0369 49.7229 41.3867 53.2278 45.4405 54.0232C51.1012 55.1349 56.3711 51.5201 57.2922 45.8758C57.3985 45.2276 57.4202 44.5624 57.426 43.9041C57.4431 41.9063 57.4328 39.9085 57.4317 37.9107C57.4317 37.388 57.1738 37.1262 56.6579 37.1255C52.3915 37.1255 48.1252 37.1255 43.8588 37.1243C43.6302 37.1243 43.3971 37.1391 43.1753 37.0994C42.6885 37.0121 42.381 36.7198 42.3696 36.2167C42.3582 35.7147 42.6496 35.4053 43.1342 35.3011C43.3536 35.2535 43.5891 35.2648 43.8165 35.2648C46.6543 35.2625 49.4921 35.2637 52.331 35.2637L52.3321 35.2614ZM50.7058 57.4341C50.7058 56.9332 50.6932 56.5377 50.7092 56.1434C50.7252 55.7513 50.5789 55.6641 50.1926 55.7547C48.3903 56.1774 46.58 56.1876 44.7788 55.7479C44.4016 55.6561 44.2451 55.7253 44.2531 56.1264C44.2668 56.9162 44.2314 57.7072 44.2668 58.4959C44.3365 60.0551 45.5902 61.3741 47.0817 61.4965C48.8418 61.6415 50.2166 60.6931 50.6224 59.067C50.7664 58.4891 50.6715 57.9055 50.7058 57.4307V57.4341ZM41.7307 59.2845C40.605 59.2845 40.5638 59.3389 40.8633 60.3429C42.1639 64.709 47.4909 66.6014 51.3252 64.0552C52.8304 63.0557 53.7916 61.6733 54.2076 59.9293C54.2545 59.7355 54.4202 59.3854 54.1493 59.3355C53.6716 59.2483 53.1607 59.2641 52.675 59.3253C52.3321 59.3684 52.3698 59.7673 52.2784 60.0177C51.5572 62.0098 49.6818 63.3549 47.5823 63.3685C45.3548 63.3832 43.4313 62.0948 42.7205 60.0268C42.5205 59.4443 42.277 59.1372 41.7307 59.2845ZM59.2409 43.0281C59.2409 43.0281 59.2363 43.0281 59.234 43.0281C59.234 43.5924 59.2317 44.1579 59.2351 44.7222C59.2351 44.9058 59.1951 45.1392 59.45 45.1823C60.3963 45.3443 61.3472 45.0021 61.4363 43.8757C61.474 43.4077 61.45 42.9352 61.4455 42.4638C61.4329 41.376 60.8146 40.8241 59.7003 40.8581C59.3494 40.8683 59.2294 41.0009 59.2374 41.3329C59.2511 41.8972 59.2409 42.4627 59.2409 43.027V43.0281ZM35.7272 43.0417H35.7237C35.7237 42.4593 35.7237 41.8757 35.7237 41.2933C35.7237 41.0995 35.7112 40.9318 35.4563 40.8706C34.5066 40.6417 33.5751 41.3068 33.5225 42.2825C33.4997 42.7142 33.5123 43.1471 33.5168 43.58C33.5283 44.7165 34.1374 45.2673 35.2746 45.2151C35.6243 45.1993 35.7409 45.0644 35.7317 44.7347C35.7169 44.1715 35.7272 43.6072 35.7272 43.0429V43.0417ZM34.5454 38.0739H34.5477C34.5477 38.2994 34.5477 38.5249 34.5477 38.7493C34.5477 38.917 34.598 39.0201 34.8003 39.0473C35.5203 39.1425 35.7226 38.9793 35.7249 38.2654C35.7249 38.0773 35.7077 37.8881 35.7283 37.7022C35.7763 37.2614 35.5946 37.1062 35.1454 37.1141C34.7283 37.1209 34.478 37.2071 34.5431 37.6807C34.5603 37.8099 34.5454 37.9436 34.5454 38.0751V38.0739ZM60.4146 38.1498C60.4146 38.0003 60.3997 37.8484 60.4169 37.7011C60.4672 37.2626 60.2843 37.1085 59.8363 37.113C59.4123 37.1175 59.186 37.2195 59.2351 37.6818C59.2591 37.9039 59.266 38.1351 59.234 38.355C59.1391 39.0054 59.546 39.0224 60.0249 39.0405C60.6306 39.062 60.3449 38.628 60.4112 38.3753C60.4295 38.3051 60.4134 38.2258 60.4134 38.151L60.4146 38.1498Z" fill="white"/>
<path d="M34.8437 25.7802C34.902 22.7207 36.2609 20.3694 38.9958 18.945C41.7307 17.5195 44.4656 17.7348 47.06 19.4016C47.3823 19.609 47.5891 19.6237 47.9137 19.4107C52.7801 16.2186 59.09 18.9087 60.098 24.5927C60.858 28.8806 57.5585 33.1084 53.1641 33.5254C51.2407 33.7079 49.5035 33.2648 47.9194 32.2053C47.6029 31.9934 47.3914 31.9809 47.0657 32.2008C42.2084 35.4733 35.6551 32.5713 34.8506 26.7956C34.8037 26.4635 34.8448 26.1191 34.8448 25.7802H34.8437ZM36.6792 25.7689C36.662 29.7577 40.4873 32.628 44.3102 31.4959C46.916 30.7254 48.5537 28.5327 48.6452 25.6953C48.7023 23.923 49.9675 22.5077 51.7847 22.1836C53.3778 21.8991 55.123 22.8793 55.7528 24.4114C56.4111 26.0137 55.867 27.8607 54.4122 28.8103C53.0956 29.6693 51.7287 29.6885 50.3766 28.884C50.0429 28.6857 49.9081 28.7117 49.748 29.0687C49.564 29.4789 49.324 29.871 49.06 30.237C48.8475 30.5305 48.9 30.6812 49.196 30.858C50.1321 31.4166 51.1481 31.726 52.2315 31.7339C55.9311 31.7611 58.6717 28.629 58.2762 25.1604C57.8728 21.6147 54.4316 19.1943 50.9332 20.043C48.1823 20.7105 46.4543 22.9292 46.3148 25.974C46.1971 28.5508 43.461 30.2098 41.1113 29.1276C39.1649 28.2324 38.3878 25.9978 39.3695 24.1224C40.349 22.2516 42.6542 21.5807 44.5056 22.6606C44.8942 22.8873 45.0885 22.8986 45.2657 22.4521C45.3971 22.1224 45.572 21.7904 45.8028 21.5241C46.1788 21.0912 46.0302 20.8838 45.5902 20.6402C41.5947 18.4226 36.6975 21.2351 36.678 25.7678L36.6792 25.7689ZM54.147 25.7882C54.1436 24.774 53.3721 24.008 52.3493 24.0023C51.2989 23.9966 50.5172 24.7729 50.5241 25.8176C50.5309 26.8511 51.2738 27.5842 52.3207 27.5899C53.3938 27.5956 54.1504 26.8488 54.147 25.7882ZM44.4462 25.8256C44.4519 24.8001 43.6965 24.0159 42.6896 24.0023C41.6301 23.9876 40.8267 24.7513 40.8198 25.778C40.813 26.8171 41.5913 27.5899 42.6462 27.591C43.6862 27.591 44.4405 26.8522 44.4462 25.8256Z" fill="white"/>
</g>
<defs>
<clipPath id="clip0_0_1">
<rect width="49" height="58" fill="white" transform="translate(23 18)"/>
</clipPath>
</defs>
</svg>
