<svg width="109" height="94" viewBox="0 0 109 94" fill="none" xmlns="http://www.w3.org/2000/svg">
<path d="M54.5 0L108.627 93.75H0.373413L54.5 0Z" fill="white"/>
<g clip-path="url(#clip0_0_1)">
<path d="M53.6526 49.7205C50.3436 48.9608 48.4463 45.0449 48.9792 42.2881C49.4699 39.7401 51.6503 37.987 54.4199 38.0001C57.1127 38.0118 59.2841 39.6944 59.7991 42.1301C60.4474 45.1976 58.2952 48.9178 55.3935 49.607C55.3487 49.6174 55.3052 49.637 55.2142 49.6683C55.4102 49.8041 55.6011 49.7597 55.774 49.7636C56.8142 49.7845 57.8481 49.8928 58.8793 50.0247C61.9347 50.415 64.2098 52.7567 64.7863 55.9469C65.0835 57.5929 65.1783 59.2755 65.3782 60.9411C65.5486 62.3639 65.7356 63.7841 65.9226 65.2043C65.9944 65.7512 65.8342 66.1415 65.4422 66.319C64.9196 66.5553 64.3738 66.2511 64.2765 65.6128C64.0933 64.4224 63.9357 63.228 63.7948 62.031C63.5667 60.0913 63.4425 58.1346 63.1248 56.2106C62.6905 53.5843 61.0174 52.0297 58.4425 51.7059C55.651 51.3548 52.8583 51.3796 50.0682 51.7568C48.0223 52.0336 46.7297 53.2554 45.9572 55.1428C45.5293 56.1897 45.4986 57.3032 45.4064 58.4035C45.2052 60.8066 44.8914 63.1954 44.6121 65.5893C44.5506 66.1128 44.1573 66.4574 43.7102 66.426C43.2452 66.3934 42.8955 65.9848 42.9454 65.4262C43.053 64.2422 43.2106 63.0635 43.3336 61.8822C43.5283 60.0195 43.6974 58.1542 43.9024 56.2941C44.2931 52.7541 46.9142 50.2218 50.4051 49.9633C51.485 49.8837 52.5611 49.7427 53.6487 49.7205H53.6526ZM54.4622 39.7401C54.2867 39.7401 54.1099 39.7309 53.9344 39.7414C52.1832 39.8458 50.7164 41.1746 50.6126 42.8898C50.4922 44.8465 51.2788 46.4233 52.8801 47.5146C53.8601 48.1829 54.9042 48.1529 55.9111 47.5119C57.0858 46.7653 57.8186 45.6845 58.1094 44.3165C58.659 41.7268 57.0692 39.7427 54.4635 39.7388L54.4622 39.7401Z" fill="#5A6592"/>
<path d="M48.6065 78.9126C48.7628 77.9663 48.9434 76.8737 49.124 75.7825C49.215 75.2369 49.279 74.6834 49.4097 74.1482C49.493 73.8075 49.3841 73.5987 49.1586 73.3768C48.053 72.2895 46.959 71.1917 45.8573 70.1004C45.5665 69.8133 45.3487 69.5013 45.4832 69.064C45.6101 68.6541 45.9226 68.4975 46.3185 68.4401C47.7891 68.226 49.2585 67.9884 50.7318 67.7887C51.1827 67.7274 51.4735 67.5681 51.6785 67.1191C52.287 65.7903 52.9506 64.4862 53.5834 63.1692C53.7794 62.7606 53.9729 62.3808 54.5109 62.3873C55.0502 62.3938 55.2309 62.788 55.4256 63.1914C56.0687 64.5228 56.7323 65.8438 57.3574 67.183C57.5304 67.5537 57.7687 67.7182 58.1504 67.7704C59.5596 67.9636 60.9675 68.1725 62.3754 68.3787C62.5496 68.4035 62.7238 68.4322 62.8929 68.4792C63.5334 68.6581 63.7615 69.3251 63.3477 69.8616C63.1517 70.1148 62.898 70.3223 62.67 70.5508C61.722 71.4984 60.7779 72.4513 59.8235 73.3925C59.6108 73.6026 59.5263 73.7997 59.5852 74.1208C59.8606 75.6259 60.1066 77.1361 60.3538 78.6464C60.4256 79.085 60.4845 79.5418 60.0477 79.8433C59.6416 80.124 59.256 79.9569 58.8755 79.752C57.5598 79.0432 56.2378 78.3474 54.9285 77.6282C54.6275 77.4624 54.3854 77.4585 54.083 77.6243C52.702 78.3801 51.3146 79.1254 49.9196 79.8538C49.1996 80.2297 48.5949 79.8499 48.6065 78.9113V78.9126ZM60.8304 69.9333C60.7189 69.9085 60.6459 69.8877 60.5716 69.8759C59.5122 69.7154 58.4553 69.5404 57.392 69.4047C56.7912 69.3277 56.3569 69.111 56.0943 68.5001C55.6908 67.5603 55.2142 66.6518 54.7607 65.7341C54.6928 65.5971 54.6762 65.3647 54.4878 65.3765C54.3162 65.3882 54.2931 65.6127 54.2239 65.7524C53.8921 66.422 53.5744 67.0982 53.2414 67.7678C52.4048 69.4478 52.7827 69.2063 50.8201 69.5065C49.9452 69.6397 49.0702 69.7767 48.3528 69.8864C49.1484 70.7661 49.9631 71.6851 50.8009 72.5818C51.1238 72.9264 51.2993 73.2724 51.1865 73.7645C51.0674 74.2866 51.0008 74.8231 50.9137 75.353C50.7997 76.0527 50.6882 76.7523 50.5767 77.4468C50.7843 77.5042 50.8791 77.3946 50.988 77.3358C51.9539 76.8241 52.9224 76.3203 53.8793 75.7916C54.2995 75.5593 54.6838 75.5514 55.1053 75.7838C56.0751 76.3203 57.0564 76.8385 58.0351 77.3593C58.1299 77.4102 58.2337 77.5251 58.34 77.4585C58.4758 77.3737 58.3925 77.2236 58.372 77.1022C58.185 75.9783 58.0121 74.8505 57.8007 73.7318C57.7187 73.2998 57.8135 72.9656 58.1158 72.6693C58.7154 72.0819 59.3136 71.4919 59.9067 70.8967C60.2104 70.5925 60.5024 70.2753 60.8304 69.932V69.9333Z" fill="#5A6592"/>
<path d="M34.3866 78.8943C34.5442 77.9441 34.7107 76.8319 34.9208 75.7289C35.0003 75.3151 34.9298 75.0214 34.6236 74.7291C33.864 74.0046 33.135 73.2475 32.3895 72.5087C32.1089 72.232 31.9116 71.9278 32.041 71.5127C32.1691 71.1029 32.4791 70.9502 32.8775 70.8953C33.9062 70.7504 34.9311 70.5664 35.9623 70.4385C36.3774 70.3876 36.6195 70.2126 36.795 69.8289C37.228 68.8838 37.7007 67.9571 38.1504 67.0198C38.3298 66.6465 38.5642 66.3411 39.0062 66.3411C39.4443 66.3411 39.6851 66.6322 39.8645 67.0133C40.3167 67.9675 40.8035 68.906 41.2403 69.8667C41.4133 70.2466 41.6631 70.3823 42.0474 70.4332C43.1094 70.5729 44.1663 70.7504 45.2257 70.9071C45.5921 70.9606 45.8509 71.1459 45.9726 71.5049C46.0969 71.873 45.9713 72.1772 45.7138 72.4356C44.9157 73.2371 44.1215 74.0425 43.3118 74.8309C43.1081 75.0293 43.0159 75.2029 43.0723 75.5057C43.2759 76.5931 43.4412 77.6882 43.6308 78.7795C43.7025 79.1919 43.6744 79.5718 43.3169 79.8355C42.9775 80.0861 42.6213 80.0078 42.2754 79.8224C41.3543 79.3303 40.4243 78.8539 39.5147 78.3409C39.1701 78.1464 38.896 78.132 38.5424 78.333C37.5919 78.8734 36.6247 79.3825 35.6498 79.8746C34.9605 80.2218 34.3725 79.825 34.3866 78.8943ZM43.2836 72.3638C42.5496 72.2529 41.8783 72.1223 41.2006 72.0571C40.6113 72.0009 40.2283 71.7399 39.9875 71.1838C39.7069 70.5351 39.3713 69.9098 39.0062 69.1632C38.6334 69.9268 38.29 70.5664 38.0044 71.2321C37.7776 71.7621 37.4023 71.9879 36.8604 72.0492C36.1545 72.1289 35.4525 72.2516 34.7876 72.3495C35.3052 72.9094 35.7907 73.4707 36.3159 73.9902C36.6874 74.3583 36.8168 74.7565 36.713 75.2682C36.5875 75.8895 36.4914 76.5187 36.3877 77.1452C36.3697 77.2509 36.3134 77.3854 36.4312 77.4585C36.5222 77.5146 36.6131 77.4272 36.6951 77.3828C36.9923 77.2235 37.2844 77.0538 37.5867 76.9024C39.2777 76.0553 38.6987 75.9874 40.4973 76.935C40.8688 77.1308 41.216 77.388 41.6861 77.495C41.5555 76.7327 41.4556 76.0252 41.307 75.3282C41.184 74.7539 41.3454 74.3296 41.7669 73.9367C42.2806 73.459 42.7443 72.9264 43.2811 72.3638H43.2836Z" fill="#5A6592"/>
<path d="M65.3359 79.0405C65.505 78.0302 65.6575 76.9664 65.8701 75.913C65.9829 75.3517 65.9086 74.9601 65.4435 74.5607C64.6864 73.9106 64.0139 73.16 63.3041 72.4526C63.0454 72.1941 62.9096 71.8952 63.0236 71.5258C63.1427 71.142 63.4169 70.958 63.8025 70.9032C64.8632 70.7504 65.9201 70.5742 66.9821 70.4319C67.351 70.3823 67.5868 70.2387 67.7507 69.8824C68.1696 68.9661 68.6321 68.0706 69.0638 67.1608C69.2585 66.7509 69.4597 66.3489 69.9772 66.3424C70.5204 66.3358 70.7254 66.7601 70.9278 67.1817C71.3633 68.0902 71.8181 68.9895 72.2421 69.9033C72.3972 70.2387 72.6226 70.3823 72.9762 70.4293C74.0382 70.5703 75.0964 70.7413 76.1558 70.8966C76.5337 70.9514 76.8271 71.1133 76.9552 71.501C77.091 71.9148 76.9065 72.2346 76.6324 72.51C75.8906 73.2527 75.1514 74.0007 74.3892 74.7212C74.0856 75.0084 73.9921 75.2969 74.0766 75.7159C74.2739 76.7053 74.4276 77.7039 74.5903 78.6998C74.6608 79.128 74.6941 79.5613 74.2739 79.8472C73.8857 80.1109 73.5117 79.9751 73.1427 79.7767C72.2242 79.2807 71.2967 78.799 70.3846 78.2887C70.1143 78.1372 69.8991 78.1294 69.6275 78.2795C68.6577 78.8173 67.679 79.3394 66.6964 79.8537C65.9893 80.2231 65.3295 79.8472 65.3359 79.0431V79.0405ZM74.1971 72.3494C73.7602 72.2842 73.2888 72.1628 72.8148 72.1536C71.7541 72.1341 71.0328 71.7098 70.6959 70.6343C70.546 70.1552 70.2616 69.7205 69.9875 69.1619C69.6121 69.932 69.2778 70.5612 68.9946 71.2138C68.7602 71.7542 68.3784 71.997 67.8135 72.0557C67.1256 72.1275 66.444 72.2555 65.7215 72.3651C66.3134 72.9851 66.8425 73.5477 67.3831 74.1012C67.6623 74.3884 67.7866 74.7029 67.7097 75.1154C67.5663 75.8934 67.4497 76.6779 67.3062 77.5642C68.0787 77.1543 68.7705 76.7941 69.4558 76.422C69.8273 76.2197 70.1783 76.2249 70.5486 76.4325C71.1084 76.7471 71.6798 77.0408 72.2511 77.3358C72.3562 77.3893 72.4727 77.5381 72.5893 77.4298C72.6867 77.3397 72.6213 77.1817 72.5996 77.0551C72.4945 76.4455 72.3933 75.836 72.2767 75.229C72.1858 74.7578 72.2972 74.3792 72.6406 74.0333C73.1722 73.4955 73.6705 72.9212 74.1958 72.3481L74.1971 72.3494Z" fill="#5A6592"/>
<path d="M61.444 65.353C61.444 65.3047 61.4479 65.4026 61.444 65.5005C61.4235 66.0305 61.0917 66.3999 60.6306 66.4129C60.1719 66.4247 59.8094 66.0735 59.7658 65.5462C59.6954 64.7029 59.6352 63.8584 59.5762 63.0139C59.452 61.2438 59.3341 59.4725 59.2099 57.7025C59.1701 57.1386 59.484 56.6804 59.9606 56.6282C60.4397 56.576 60.8304 56.8867 60.8893 57.461C60.9944 58.4805 61.0584 59.5052 61.1289 60.5272C61.2365 62.0871 61.3339 63.6469 61.4453 65.353H61.444Z" fill="#5A6592"/>
<path d="M49.5326 58.0811C49.3661 60.5508 49.2047 63.0217 49.0279 65.4901C48.9843 66.0893 48.6026 66.4325 48.0991 66.3934C47.6226 66.3555 47.3241 65.9874 47.3587 65.3857C47.4663 63.5491 47.597 61.7125 47.7174 59.8772C47.7609 59.2102 47.807 58.5445 47.8429 57.8775C47.8557 57.6321 47.8609 57.3841 47.9608 57.1582C48.1312 56.7732 48.4373 56.5761 48.8473 56.6426C49.2508 56.7079 49.5096 56.9624 49.5429 57.3971C49.5595 57.6242 49.5455 57.8527 49.5455 58.0811C49.5416 58.0811 49.5365 58.0811 49.5326 58.0811Z" fill="#5A6592"/>
</g>
<defs>
<clipPath id="clip0_0_1">
<rect width="45" height="42" fill="white" transform="translate(32 38)"/>
</clipPath>
</defs>
</svg>
